<mxfile host="app.diagrams.net" modified="2023-07-21T10:09:22.272Z" agent="Mozilla/5.0 (Macintosh; Intel Mac OS X 10_15_7) AppleWebKit/537.36 (KHTML, like Gecko) Chrome/114.0.0.0 Safari/537.36" version="21.6.5" etag="d-B_-Hbtu0QEVcDXyzrL" type="github">
  <diagram name="Page-1" id="Nryo0F1ZkJp3oWkb9V4C">
    <mxGraphModel>
      <root>
        <mxCell id="0" />
        <mxCell id="1" parent="0" />
      </root>
    </mxGraphModel>
  </diagram>
</mxfile>
